<?xml version="1.0" encoding="UTF-8"?>
<svg version="1.1" xmlns="http://www.w3.org/2000/svg" width="900" height="900">
<path d="M0 0 C1.18548431 -0.00701431 2.37096863 -0.01402863 3.59237671 -0.02125549 C7.39756109 -0.03866109 11.20258977 -0.04510794 15.0078125 -0.046875 C16.30859741 -0.04754974 17.60938232 -0.04822449 18.94958496 -0.04891968 C38.20244365 -0.03304232 57.05790041 0.39638011 76.1328125 3.203125 C77.9595752 3.46053467 77.9595752 3.46053467 79.82324219 3.72314453 C171.3858328 16.88247396 255.9732946 57.96274187 323.59570312 120.78369141 C325.22904178 122.2919873 326.8749805 123.78559308 328.5234375 125.27734375 C333.84403927 130.10799953 338.98297219 134.89767875 343.6015625 140.421875 C345.15374271 142.22747239 346.79378928 143.8639299 348.5078125 145.515625 C352.21898652 149.16906965 355.43984645 153.15458546 358.69921875 157.2109375 C360.74777296 159.72970559 362.84424882 162.19356316 364.97314453 164.64428711 C387.74694589 190.99635701 405.48583439 221.22084053 421.1328125 252.203125 C421.57657227 253.07984863 422.02033203 253.95657227 422.47753906 254.85986328 C449.79327022 309.27387664 466.092649 373.01298021 466.3359375 434.0703125 C466.34295181 435.25579681 466.34996613 436.44128113 466.35719299 437.66268921 C466.37459859 441.46787359 466.38104544 445.27290227 466.3828125 449.078125 C466.38382462 451.02930237 466.38382462 451.02930237 466.38485718 453.01989746 C466.36897982 472.27275615 465.93955739 491.12821291 463.1328125 510.203125 C462.96120605 511.4209668 462.78959961 512.63880859 462.61279297 513.89355469 C451.37189973 592.10766977 419.67300612 667.5092129 370.1328125 729.203125 C369.3490625 730.18667969 368.5653125 731.17023437 367.7578125 732.18359375 C365.57753461 734.88168764 363.36468483 737.54757521 361.1328125 740.203125 C360.67551758 740.7506543 360.21822266 741.29818359 359.74707031 741.86230469 C353.88256937 748.87109849 347.90642337 755.59562391 341.35546875 761.98046875 C339.37257701 763.96336049 337.55801641 765.99339383 335.7578125 768.140625 C331.47789123 773.13386648 326.55817163 777.43800419 321.67041016 781.81835938 C320.20407434 783.13894635 318.75202927 784.4753501 317.30078125 785.8125 C311.1001996 791.52519611 304.75646628 796.98776302 298.1328125 802.203125 C297.41899414 802.76773438 296.70517578 803.33234375 295.96972656 803.9140625 C270.44200642 824.01101817 243.09083165 840.57846128 214.1328125 855.203125 C213.25608887 855.64688477 212.37936523 856.09064453 211.47607422 856.54785156 C157.06206086 883.86358272 93.32295729 900.1629615 32.265625 900.40625 C31.08014069 900.41326431 29.89465637 900.42027863 28.67324829 900.42750549 C24.86806391 900.44491109 21.06303523 900.45135794 17.2578125 900.453125 C15.95702759 900.45379974 14.65624268 900.45447449 13.31604004 900.45516968 C-5.93681865 900.43929232 -24.79227541 900.00986989 -43.8671875 897.203125 C-45.0850293 897.03151855 -46.30287109 896.85991211 -47.55761719 896.68310547 C-139.1202078 883.52377604 -223.7076696 842.44350813 -291.33007812 779.62255859 C-292.96341678 778.1142627 -294.6093555 776.62065692 -296.2578125 775.12890625 C-301.57841427 770.29825047 -306.71734719 765.50857125 -311.3359375 759.984375 C-312.88811771 758.17877761 -314.52816428 756.5423201 -316.2421875 754.890625 C-319.95336152 751.23718035 -323.17422145 747.25166454 -326.43359375 743.1953125 C-328.48214796 740.67654441 -330.57862382 738.21268684 -332.70751953 735.76196289 C-355.48132089 709.40989299 -373.22020939 679.18540947 -388.8671875 648.203125 C-389.53282715 646.88803955 -389.53282715 646.88803955 -390.21191406 645.54638672 C-417.52764522 591.13237336 -433.827024 527.39326979 -434.0703125 466.3359375 C-434.07732681 465.15045319 -434.08434113 463.96496887 -434.09156799 462.74356079 C-434.10897359 458.93837641 -434.11542044 455.13334773 -434.1171875 451.328125 C-434.11786224 450.02734009 -434.11853699 448.72655518 -434.11923218 447.38635254 C-434.10335482 428.13349385 -433.67393239 409.27803709 -430.8671875 390.203125 C-430.69558105 388.9852832 -430.52397461 387.76744141 -430.34716797 386.51269531 C-419.10627473 308.29858023 -387.40738112 232.8970371 -337.8671875 171.203125 C-337.0834375 170.21957031 -336.2996875 169.23601562 -335.4921875 168.22265625 C-333.31190961 165.52456236 -331.09905983 162.85867479 -328.8671875 160.203125 C-328.40989258 159.6555957 -327.95259766 159.10806641 -327.48144531 158.54394531 C-321.61694437 151.53515151 -315.64079837 144.81062609 -309.08984375 138.42578125 C-307.10695201 136.44288951 -305.29239141 134.41285617 -303.4921875 132.265625 C-299.20849518 127.26798396 -294.28405423 122.96261798 -289.39160156 118.57910156 C-287.96160638 117.28834999 -286.5503893 115.97688026 -285.140625 114.6640625 C-278.63967293 108.62335482 -271.83961665 103.12588409 -264.81542969 97.71875 C-262.78670977 96.14051777 -260.78278981 94.53440966 -258.78125 92.921875 C-235.08543101 73.95227128 -208.89894053 58.85496685 -181.8671875 45.203125 C-180.99046387 44.75936523 -180.11374023 44.31560547 -179.21044922 43.85839844 C-124.79643586 16.54266728 -61.05733229 0.2432885 0 0 Z " fill="#754DB9" transform="translate(433.8671875,-0.203125)"/>
<path d="M0 0 C1.18548431 -0.00701431 2.37096863 -0.01402863 3.59237671 -0.02125549 C7.39756109 -0.03866109 11.20258977 -0.04510794 15.0078125 -0.046875 C16.30859741 -0.04754974 17.60938232 -0.04822449 18.94958496 -0.04891968 C38.20244365 -0.03304232 57.05790041 0.39638011 76.1328125 3.203125 C77.9595752 3.46053467 77.9595752 3.46053467 79.82324219 3.72314453 C171.3858328 16.88247396 255.9732946 57.96274187 323.59570312 120.78369141 C325.22904178 122.2919873 326.8749805 123.78559308 328.5234375 125.27734375 C333.84403927 130.10799953 338.98297219 134.89767875 343.6015625 140.421875 C345.15374271 142.22747239 346.79378928 143.8639299 348.5078125 145.515625 C352.21898652 149.16906965 355.43984645 153.15458546 358.69921875 157.2109375 C360.74777296 159.72970559 362.84424882 162.19356316 364.97314453 164.64428711 C387.74694589 190.99635701 405.48583439 221.22084053 421.1328125 252.203125 C421.57657227 253.07984863 422.02033203 253.95657227 422.47753906 254.85986328 C449.79327022 309.27387664 466.092649 373.01298021 466.3359375 434.0703125 C466.34295181 435.25579681 466.34996613 436.44128113 466.35719299 437.66268921 C466.37459859 441.46787359 466.38104544 445.27290227 466.3828125 449.078125 C466.38382462 451.02930237 466.38382462 451.02930237 466.38485718 453.01989746 C466.36897982 472.27275615 465.93955739 491.12821291 463.1328125 510.203125 C462.96120605 511.4209668 462.78959961 512.63880859 462.61279297 513.89355469 C451.37189973 592.10766977 419.67300612 667.5092129 370.1328125 729.203125 C369.3490625 730.18667969 368.5653125 731.17023437 367.7578125 732.18359375 C365.57753461 734.88168764 363.36468483 737.54757521 361.1328125 740.203125 C360.67551758 740.7506543 360.21822266 741.29818359 359.74707031 741.86230469 C353.88256937 748.87109849 347.90642337 755.59562391 341.35546875 761.98046875 C339.37257701 763.96336049 337.55801641 765.99339383 335.7578125 768.140625 C331.47789123 773.13386648 326.55817163 777.43800419 321.67041016 781.81835938 C320.20407434 783.13894635 318.75202927 784.4753501 317.30078125 785.8125 C311.1001996 791.52519611 304.75646628 796.98776302 298.1328125 802.203125 C297.41899414 802.76773438 296.70517578 803.33234375 295.96972656 803.9140625 C270.44200642 824.01101817 243.09083165 840.57846128 214.1328125 855.203125 C213.25608887 855.64688477 212.37936523 856.09064453 211.47607422 856.54785156 C157.06206086 883.86358272 93.32295729 900.1629615 32.265625 900.40625 C31.08014069 900.41326431 29.89465637 900.42027863 28.67324829 900.42750549 C24.86806391 900.44491109 21.06303523 900.45135794 17.2578125 900.453125 C15.95702759 900.45379974 14.65624268 900.45447449 13.31604004 900.45516968 C-5.93681865 900.43929232 -24.79227541 900.00986989 -43.8671875 897.203125 C-45.0850293 897.03151855 -46.30287109 896.85991211 -47.55761719 896.68310547 C-139.1202078 883.52377604 -223.7076696 842.44350813 -291.33007812 779.62255859 C-292.96341678 778.1142627 -294.6093555 776.62065692 -296.2578125 775.12890625 C-301.57841427 770.29825047 -306.71734719 765.50857125 -311.3359375 759.984375 C-312.88811771 758.17877761 -314.52816428 756.5423201 -316.2421875 754.890625 C-319.95336152 751.23718035 -323.17422145 747.25166454 -326.43359375 743.1953125 C-328.48214796 740.67654441 -330.57862382 738.21268684 -332.70751953 735.76196289 C-355.48132089 709.40989299 -373.22020939 679.18540947 -388.8671875 648.203125 C-389.53282715 646.88803955 -389.53282715 646.88803955 -390.21191406 645.54638672 C-417.52764522 591.13237336 -433.827024 527.39326979 -434.0703125 466.3359375 C-434.07732681 465.15045319 -434.08434113 463.96496887 -434.09156799 462.74356079 C-434.10897359 458.93837641 -434.11542044 455.13334773 -434.1171875 451.328125 C-434.11786224 450.02734009 -434.11853699 448.72655518 -434.11923218 447.38635254 C-434.10335482 428.13349385 -433.67393239 409.27803709 -430.8671875 390.203125 C-430.69558105 388.9852832 -430.52397461 387.76744141 -430.34716797 386.51269531 C-419.10627473 308.29858023 -387.40738112 232.8970371 -337.8671875 171.203125 C-337.0834375 170.21957031 -336.2996875 169.23601562 -335.4921875 168.22265625 C-333.31190961 165.52456236 -331.09905983 162.85867479 -328.8671875 160.203125 C-328.40989258 159.6555957 -327.95259766 159.10806641 -327.48144531 158.54394531 C-321.61694437 151.53515151 -315.64079837 144.81062609 -309.08984375 138.42578125 C-307.10695201 136.44288951 -305.29239141 134.41285617 -303.4921875 132.265625 C-299.20849518 127.26798396 -294.28405423 122.96261798 -289.39160156 118.57910156 C-287.96160638 117.28834999 -286.5503893 115.97688026 -285.140625 114.6640625 C-278.63967293 108.62335482 -271.83961665 103.12588409 -264.81542969 97.71875 C-262.78670977 96.14051777 -260.78278981 94.53440966 -258.78125 92.921875 C-235.08543101 73.95227128 -208.89894053 58.85496685 -181.8671875 45.203125 C-180.99046387 44.75936523 -180.11374023 44.31560547 -179.21044922 43.85839844 C-124.79643586 16.54266728 -61.05733229 0.2432885 0 0 Z M-37.8671875 47.203125 C-39.61191148 47.41072586 -41.35669778 47.6178041 -43.1015625 47.82421875 C-118.49855774 57.36785296 -193.30110085 92.68439959 -249.8671875 143.203125 C-250.7334375 143.97011719 -251.5996875 144.73710937 -252.4921875 145.52734375 C-254.96627392 147.73578307 -257.41704502 149.96817223 -259.8671875 152.203125 C-260.83785156 153.069375 -261.80851563 153.935625 -262.80859375 154.828125 C-275.54386231 166.27540156 -287.26532972 178.75640377 -297.8671875 192.203125 C-298.77018293 193.30498841 -299.67526273 194.40514578 -300.58203125 195.50390625 C-338.58360144 241.79315411 -366.82630008 298.62059635 -379.8671875 357.203125 C-380.22224365 358.77827881 -380.22224365 358.77827881 -380.58447266 360.38525391 C-393.62116018 419.45903429 -392.72308094 479.04515288 -380.8671875 538.203125 C-380.71846191 538.97575684 -380.56973633 539.74838867 -380.41650391 540.54443359 C-366.90760123 609.84885227 -329.02349892 674.60110072 -281.8671875 726.203125 C-280.9477736 727.21601599 -280.02850971 728.22904316 -279.109375 729.2421875 C-272.38044221 736.64297994 -265.60061328 743.80629593 -258.01171875 750.3359375 C-255.71611321 752.33466145 -253.4823915 754.39257729 -251.2421875 756.453125 C-245.03767592 762.03624392 -238.50357177 767.15078625 -231.8671875 772.203125 C-231.14853516 772.75162109 -230.42988281 773.30011719 -229.68945312 773.86523438 C-218.13767876 782.64061662 -206.29841536 790.72637201 -193.8671875 798.203125 C-192.67416016 798.92532227 -192.67416016 798.92532227 -191.45703125 799.66210938 C-168.07763571 813.71601569 -143.52103506 824.997646 -117.8671875 834.203125 C-116.79936035 834.59419434 -116.79936035 834.59419434 -115.70996094 834.99316406 C-89.9367216 844.39564837 -62.82971222 849.62364882 -35.7421875 853.453125 C-34.59387451 853.61643311 -33.44556152 853.77974121 -32.26245117 853.94799805 C-15.90781441 856.15028323 0.40636128 856.44342252 16.8828125 856.453125 C17.92083008 856.45379974 18.95884766 856.45447449 20.02832031 856.45516968 C36.60285532 856.43812228 52.72162929 855.67712463 69.1328125 853.203125 C70.37337402 853.02620117 71.61393555 852.84927734 72.89208984 852.66699219 C114.71546669 846.66482706 155.12686013 834.83869024 193.1328125 816.203125 C194.72367676 815.42437012 194.72367676 815.42437012 196.34667969 814.62988281 C231.605225 797.18618145 263.14406353 774.69438175 292.1328125 748.203125 C293.14570349 747.2837111 294.15873066 746.36444721 295.171875 745.4453125 C302.57266744 738.71637971 309.73598343 731.93655078 316.265625 724.34765625 C318.26434895 722.05205071 320.32226479 719.818329 322.3828125 717.578125 C327.96593142 711.37361342 333.08047375 704.83950927 338.1328125 698.203125 C338.68130859 697.48447266 339.22980469 696.76582031 339.79492188 696.02539062 C348.56995271 684.47407885 356.65959276 672.63604913 364.1328125 660.203125 C364.61959473 659.39713867 365.10637695 658.59115234 365.60791016 657.76074219 C383.83497172 627.36028564 396.8905398 595.05985763 407.1328125 561.203125 C407.37870117 560.40535645 407.62458984 559.60758789 407.87792969 558.78564453 C412.05397377 545.15243928 414.64234272 531.22851996 417.1328125 517.203125 C417.29023926 516.32978516 417.44766602 515.45644531 417.60986328 514.55664062 C421.25446744 494.09426327 422.47476623 473.59719771 422.39355469 452.83203125 C422.38279468 449.57272864 422.39355275 446.31397409 422.40625 443.0546875 C422.42003612 424.41180877 420.89072695 406.21398646 417.8203125 387.828125 C417.7123233 387.17469116 417.60433411 386.52125732 417.49307251 385.84802246 C404.25336238 305.96912025 368.68856828 233.90218436 314.1328125 174.203125 C313.2133986 173.19023401 312.29413471 172.17720684 311.375 171.1640625 C304.64606721 163.76327006 297.86623828 156.59995407 290.27734375 150.0703125 C287.98173821 148.07158855 285.7480165 146.01367271 283.5078125 143.953125 C277.30330092 138.37000608 270.76919677 133.25546375 264.1328125 128.203125 C263.41416016 127.65462891 262.69550781 127.10613281 261.95507812 126.54101562 C250.40376635 117.76598479 238.56573663 109.67634474 226.1328125 102.203125 C225.32682617 101.71634277 224.52083984 101.22956055 223.69042969 100.72802734 C193.28997314 82.50096578 160.98954513 69.4453977 127.1328125 59.203125 C126.33504395 58.95723633 125.53727539 58.71134766 124.71533203 58.45800781 C104.77015619 52.34851764 84.04757947 48.90370632 63.34716797 46.56762695 C60.90576168 46.290776 58.4694346 45.9946048 56.03173828 45.68823242 C43.3024574 44.14937071 30.69578472 43.84645902 17.8828125 43.890625 C16.83710083 43.89178314 15.79138916 43.89294128 14.71398926 43.89413452 C-2.99877763 43.93275492 -20.29903396 44.88874079 -37.8671875 47.203125 Z " fill="#FEFEFE" transform="translate(433.8671875,-0.203125)"/>
<path d="M0 0 C2.5390625 2.10546875 2.5390625 2.10546875 5 5 C5.43151367 5.49580566 5.86302734 5.99161133 6.30761719 6.50244141 C7.68273487 8.09038685 9.03040696 9.69865565 10.375 11.3125 C11.35391541 12.47417011 12.33308115 13.63562931 13.3125 14.796875 C14.8218223 16.59180111 16.32252328 18.3920326 17.8125 20.203125 C39.77455534 46.33797085 72.17222822 63.96731975 105 72 C105.7007666 72.18336914 106.4015332 72.36673828 107.12353516 72.55566406 C120.22919158 75.8863211 133.23852176 76.42243347 146.6875 76.5 C147.50145233 76.51035278 148.31540466 76.52070557 149.15402222 76.53137207 C161.57514868 76.65585701 172.9542643 74.95348672 185 72 C186.34638361 71.68452475 187.6930493 71.37025009 189.04003906 71.05737305 C203.72999011 67.56645122 217.84729324 61.59476644 230.95703125 54.15234375 C234.86020429 52.67424869 237.00371284 52.83802369 241 54 C245.57654312 57.57926656 248.22842858 62.30988076 251.125 67.25 C252.09839632 68.8761173 253.07370327 70.50109221 254.05078125 72.125 C254.78868896 73.35283203 254.78868896 73.35283203 255.54150391 74.60546875 C257.73011197 78.198684 260.01285997 81.72715619 262.3125 85.25 C266.51808608 91.7048216 270.68042261 98.18534479 274.8125 104.6875 C275.69578979 106.07727051 275.69578979 106.07727051 276.59692383 107.49511719 C277.79867284 109.38644783 279.00025068 111.27788725 280.20166016 113.16943359 C282.55241073 116.86948818 284.90592712 120.56777845 287.25976562 124.26586914 C288.41362123 126.07872392 289.56726938 127.89171076 290.72070312 129.70483398 C293.79643082 134.53954776 296.87495543 139.3724552 299.95703125 144.203125 C300.60220703 145.21503906 301.24738281 146.22695313 301.91210938 147.26953125 C303.1561113 149.22055586 304.40087353 151.17109594 305.64648438 153.12109375 C306.20271484 153.99378906 306.75894531 154.86648438 307.33203125 155.765625 C308.07030151 156.92239746 308.07030151 156.92239746 308.82348633 158.10253906 C311.00875593 161.62690415 311.41056394 163.81224776 311 168 C307.65380253 173.78246405 301.76782276 176.2409672 296.0625 179.25 C295.00015137 179.81775146 293.93780273 180.38550293 292.84326172 180.97045898 C282.80749522 186.25240209 272.51869937 190.77905145 262 195 C261.1965918 195.32726074 260.39318359 195.65452148 259.56542969 195.99169922 C249.7663839 199.96110394 240.00221771 203.4520342 229.75 206.0625 C228.75653564 206.31926514 227.76307129 206.57603027 226.73950195 206.84057617 C219.75434297 208.62064137 212.75748104 210.15872989 205.66796875 211.45703125 C203.04067807 211.87138662 203.04067807 211.87138662 201 213 C162.09905354 219.86036396 120.52447897 219.93668517 82 211 C80.52763719 210.68612037 79.05497175 210.37365748 77.58203125 210.0625 C66.65529465 207.66734644 56.03972982 204.54048815 45.4375 201 C44.19009033 200.58492187 42.94268066 200.16984375 41.6574707 199.7421875 C31.25656826 196.21349565 21.09792647 192.252291 11.3125 187.25 C10.64444336 186.91057373 9.97638672 186.57114746 9.28808594 186.22143555 C7.88888376 185.50798581 6.4909328 184.79207696 5.09423828 184.07373047 C3.03578251 183.01834594 0.96948026 181.97966021 -1.09765625 180.94140625 C-25.33607183 168.60747118 -46.97290347 152.307903 -67 134 C-68.43859375 132.71802734 -68.43859375 132.71802734 -69.90625 131.41015625 C-85.14669913 117.7785173 -98.50775175 102.00950035 -110.375 85.375 C-110.84550781 84.7365918 -111.31601563 84.09818359 -111.80078125 83.44042969 C-114.70428649 79.25064515 -115.93995703 76.23690347 -115 71 C-110.96991458 65.41784667 -104.30931846 62.1607273 -98.5625 58.5625 C-96.8702238 57.49158825 -95.17794985 56.42067291 -93.48588562 55.34942627 C-91.76476216 54.26117318 -90.04181412 53.17586519 -88.31835938 52.09130859 C-84.37116036 49.60369038 -80.43569935 47.09803249 -76.50170898 44.58959961 C-73.80068558 42.8674673 -71.09789276 41.14814681 -68.39453125 39.4296875 C-63.84699697 36.53872554 -59.30043934 33.64623322 -54.75439453 30.75292969 C-52.92605107 29.58935 -51.09760146 28.42593706 -49.26904297 27.26269531 C-43.60626175 23.66011866 -37.94678278 20.05241339 -32.2890625 16.44189453 C-29.51704577 14.67568319 -26.741403 12.91530925 -23.96484375 11.15625 C-20.94188862 9.24085051 -17.93313228 7.30751867 -14.94140625 5.34375 C-13.79437672 4.60400246 -12.64725107 3.86440391 -11.5 3.125 C-10.5615625 2.50882813 -9.623125 1.89265625 -8.65625 1.2578125 C-5.40307025 -0.28266379 -3.55631962 -0.60831783 0 0 Z " fill="#3B157A" transform="translate(304,547)"/>
<path d="M0 0 C1.39454407 0.00040787 1.39454407 0.00040787 2.81726074 0.00082397 C41.11453097 0.05230101 41.11453097 0.05230101 58.48828125 4.34765625 C61.96249821 5.19358677 65.43864989 5.86432669 68.95239258 6.51953125 C91.0420846 10.68556037 112.63208311 17.31552135 132.84570312 27.18505859 C135.12740454 28.27850701 137.42809322 29.32271973 139.734375 30.36328125 C165.83004 42.25069901 189.50228121 58.18104118 210.9375 77.1875 C211.90558594 78.04472656 212.87367188 78.90195313 213.87109375 79.78515625 C225.73161621 90.48010279 237.09937214 101.58239868 246.9375 114.1875 C247.93521392 115.42112325 248.93537955 116.65276616 249.9375 117.8828125 C252.97752781 121.62018432 255.97202179 125.39076427 258.9375 129.1875 C259.62972656 130.07050781 260.32195312 130.95351563 261.03515625 131.86328125 C263.5584121 135.31709955 265.2959648 138.11189092 265.625 142.4375 C264.67161602 147.63777623 262.02790035 149.72024955 257.86791992 152.64013672 C255.32955929 154.2972502 252.76474674 155.90404041 250.1875 157.5 C248.20280569 158.74558511 246.21844339 159.99169937 244.234375 161.23828125 C243.20119141 161.88490723 242.16800781 162.5315332 241.10351562 163.19775391 C235.85957379 166.49341445 230.64997649 169.842385 225.4375 173.1875 C215.75864319 179.38754042 206.06763171 185.56817384 196.3671875 191.734375 C191.65249135 194.73136674 186.94238013 197.7354943 182.23339844 200.74145508 C179.45868927 202.50918276 176.67891793 204.26871261 173.8984375 206.02734375 C170.8769766 207.94085915 167.88124581 209.88237469 164.9140625 211.87890625 C164.32568604 212.26578613 163.73730957 212.65266602 163.13110352 213.05126953 C161.64296379 214.03088913 160.16651456 215.02820919 158.69140625 216.02734375 C155.0017607 217.58170507 152.76841404 217.21530621 148.9375 216.1875 C147.0390625 214.7265625 147.0390625 214.7265625 145.5625 212.8125 C144.97597656 212.08289063 144.38945313 211.35328125 143.78515625 210.6015625 C143.17542969 209.80492187 142.56570313 209.00828125 141.9375 208.1875 C130.45359498 193.43271144 117.5380507 180.5459185 101.9375 170.1875 C100.87144531 169.47207031 99.80539062 168.75664062 98.70703125 168.01953125 C87.26656282 160.67205029 74.69179991 154.87794 61.9375 150.1875 C61.2878125 149.93613281 60.638125 149.68476563 59.96875 149.42578125 C52.61567401 146.75322094 44.87940546 145.25153163 37.22998047 143.67822266 C35.75278388 143.36201764 34.2817047 143.01489044 32.82080078 142.63037109 C24.73747909 140.65741516 16.55736314 140.88622168 8.28955078 140.92675781 C5.70711466 140.93741902 3.12538293 140.92684916 0.54296875 140.9140625 C-9.18679701 140.90553827 -18.46942348 141.42871581 -28.0625 143.1875 C-28.82723633 143.32285156 -29.59197266 143.45820313 -30.37988281 143.59765625 C-47.15164743 146.78289593 -63.92432179 152.59068294 -78.52148438 161.48120117 C-81.85835842 163.42955728 -83.93118224 164.18886081 -87.83203125 164.1484375 C-91.26457196 163.12739153 -92.28433582 162.60837424 -94.3125 159.75 C-95.18261719 158.52410156 -95.18261719 158.52410156 -96.0703125 157.2734375 C-98.99573693 152.7418977 -101.8168525 148.15103803 -104.59936523 143.53051758 C-108.07815904 137.7555443 -111.68254012 132.07799885 -115.375 126.4375 C-121.76138035 116.67316806 -128.03296558 106.83919846 -134.28320312 96.98730469 C-136.67167846 93.22892994 -139.07149573 89.47784773 -141.47070312 85.72631836 C-143.7872062 82.09549858 -146.0874379 78.45447434 -148.38867188 74.81396484 C-150.04643196 72.21271295 -151.73177875 69.6311074 -153.421875 67.05078125 C-154.4485566 65.45093132 -155.47463028 63.85069105 -156.5 62.25 C-156.97912842 61.53489258 -157.45825684 60.81978516 -157.9519043 60.08300781 C-160.0873229 56.70404324 -161.02928515 54.61019308 -161.34765625 50.55859375 C-158.12602162 42.10792296 -147.19742882 38.33362889 -139.625 34.4375 C-138.74353806 33.98295441 -138.74353806 33.98295441 -137.8442688 33.51922607 C-104.46424099 16.3792989 -68.28947692 5.6933701 -31.0625 1.1875 C-30.2981665 1.09106201 -29.53383301 0.99462402 -28.74633789 0.89526367 C-19.19733249 -0.14859236 -9.59322597 -0.0104785 0 0 Z " fill="#FEFEFE" transform="translate(446.0625,136.8125)"/>
</svg>
