<?xml version="1.0" encoding="UTF-8"?>
<svg version="1.1" xmlns="http://www.w3.org/2000/svg" width="126" height="127">
<path d="M0 0 C12.92762288 10.14549457 23.70467028 24.32566258 26 41 C27.54977663 61.65948851 24.21374429 79.48543572 10.4375 95.75 C-2.19240955 108.89815812 -18.66494144 115.62145058 -36.8125 116.3125 C-55.31767242 115.86551516 -71.92846737 108.61031267 -84.8125 95.4375 C-90.22546416 89.03764182 -93.73173143 81.66064201 -97 74 C-97.38414063 73.10925781 -97.76828125 72.21851562 -98.1640625 71.30078125 C-103.26650446 56.4941623 -101.10484324 37.71223582 -94.4921875 23.8359375 C-85.58506275 7.47168506 -71.69365973 -3.84985067 -54.125 -9.875 C-35.3792952 -14.41858883 -15.70713771 -11.04510238 0 0 Z " fill="#F8F6F5" transform="translate(100,11)"/>
<path d="M0 0 C7.91291838 1.79212437 13.92603221 8.80055042 19.2421875 14.5078125 C22.58015961 13.0719664 24.59627654 11.28649439 27.0546875 8.6328125 C31.63145265 3.97990893 35.69234056 0.40488385 42.4921875 0.0078125 C46.2421875 0.5078125 46.2421875 0.5078125 48.2421875 1.9453125 C51.70600547 10.82134605 47.54011245 19.22766521 44.2421875 27.5078125 C45.80066406 27.70117188 45.80066406 27.70117188 47.390625 27.8984375 C53.67463867 28.89266279 60.58930958 30.5738031 65.4296875 34.9453125 C67.2421875 37.5078125 67.2421875 37.5078125 67.8671875 40.0078125 C66.94836075 43.68311948 65.33995348 45.49828367 62.2421875 47.5078125 C50.64846623 52.92613294 50.64846623 52.92613294 44.2421875 52.5078125 C44.603125 53.33023438 44.9640625 54.15265625 45.3359375 55 C48.17040604 61.81847155 50.72313123 68.06157204 49.2421875 75.5078125 C47.6171875 78.6328125 47.6171875 78.6328125 45.2421875 80.5078125 C42.00092638 81.33697232 40.13016028 80.96855309 37.171875 79.43359375 C31.43465068 75.78535877 25.93579205 71.43443287 21.2421875 66.5078125 C21.2421875 65.8478125 21.2421875 65.1878125 21.2421875 64.5078125 C18.63837492 66.51646792 16.22626362 68.52416676 13.9296875 70.8828125 C5.10782237 79.49951797 5.10782237 79.49951797 -1.0078125 80.6953125 C-4.7578125 80.5078125 -4.7578125 80.5078125 -7.2578125 78.6953125 C-9.98393235 72.90230782 -9.55689041 68.01288028 -7.62890625 61.96875 C-6.40931147 58.77904058 -5.13004829 55.63454977 -3.7578125 52.5078125 C-5.0571875 52.4253125 -6.3565625 52.3428125 -7.6953125 52.2578125 C-14.3415944 51.50421833 -19.59768607 49.2270968 -24.8203125 45.0703125 C-26.7578125 42.5078125 -26.7578125 42.5078125 -27.5078125 40.0703125 C-26.25197575 35.77953692 -23.53745319 33.74374257 -19.7578125 31.5078125 C-14.60061409 29.49570028 -9.33522524 27.5078125 -3.7578125 27.5078125 C-4.11875 26.60160156 -4.4796875 25.69539063 -4.8515625 24.76171875 C-10.68552334 9.44757154 -10.68552334 9.44757154 -7.7578125 1.9453125 C-5.22349489 0.12377172 -3.09425963 -0.17001427 0 0 Z " fill="#E95033" transform="translate(42.7578125,22.4921875)"/>
<path d="M0 0 C12.92762288 10.14549457 23.70467028 24.32566258 26 41 C27.54977663 61.65948851 24.21374429 79.48543572 10.4375 95.75 C-2.19240955 108.89815812 -18.66494144 115.62145058 -36.8125 116.3125 C-55.31767242 115.86551516 -71.92846737 108.61031267 -84.8125 95.4375 C-90.22546416 89.03764182 -93.73173143 81.66064201 -97 74 C-97.38414063 73.10925781 -97.76828125 72.21851562 -98.1640625 71.30078125 C-103.26650446 56.4941623 -101.10484324 37.71223582 -94.4921875 23.8359375 C-85.58506275 7.47168506 -71.69365973 -3.84985067 -54.125 -9.875 C-35.3792952 -14.41858883 -15.70713771 -11.04510238 0 0 Z M-82.75 14.93359375 C-94.27165816 29.36567077 -96.52776983 44.89444477 -94.72265625 62.7421875 C-94.30387568 64.91984647 -93.73460672 66.90771699 -93 69 C-92.68160156 69.928125 -92.36320312 70.85625 -92.03515625 71.8125 C-85.98744635 87.77682513 -75.225255 98.60696752 -60 106 C-45.35212397 111.98591088 -29.60540606 112.01631903 -15 106 C-14.13117188 105.649375 -13.26234375 105.29875 -12.3671875 104.9375 C3.13181652 97.94108439 12.8535339 85.31246851 19.125 69.8515625 C23.65900731 55.07555652 21.99118846 38.01456339 15.15527344 24.37768555 C7.09022271 9.43635158 -6.08688295 0.21812239 -22 -5 C-44.88119462 -11.61078196 -67.42545579 -1.99865934 -82.75 14.93359375 Z " fill="#CD3234" transform="translate(100,11)"/>
<path d="M0 0 C7.91291838 1.79212437 13.92603221 8.80055042 19.2421875 14.5078125 C22.58015961 13.0719664 24.59627654 11.28649439 27.0546875 8.6328125 C31.63145265 3.97990893 35.69234056 0.40488385 42.4921875 0.0078125 C46.2421875 0.5078125 46.2421875 0.5078125 48.2421875 1.9453125 C50.92719033 8.82563224 48.9140275 15.88455441 46.5546875 22.5703125 C46.31041016 23.32119141 46.06613281 24.07207031 45.81445312 24.84570312 C43.97559527 30.23192727 41.44017175 34.80949989 38.2421875 39.5078125 C33.53185682 35.20122445 33.53185682 35.20122445 32.359375 32.39453125 C31.25154376 29.77390526 30.43702904 28.34991165 28.2421875 26.5078125 C22.89444591 25.11856224 17.53369139 24.58764216 12.2421875 26.5078125 C8.39061385 29.95949599 5.99929878 33.6458415 4.2421875 38.5078125 C4.45615856 42.05170817 6.43812152 44.67631319 8.3046875 47.6328125 C11.2421875 52.29134191 11.2421875 52.29134191 11.2421875 54.5078125 C9.47143833 54.53486979 7.70057039 54.55423445 5.9296875 54.5703125 C4.94355469 54.58191406 3.95742188 54.59351563 2.94140625 54.60546875 C0.2421875 54.5078125 0.2421875 54.5078125 -2.7578125 53.5078125 C-3.0878125 54.1678125 -3.4178125 54.8278125 -3.7578125 55.5078125 C-3.7578125 54.5178125 -3.7578125 53.5278125 -3.7578125 52.5078125 C-5.0571875 52.4253125 -6.3565625 52.3428125 -7.6953125 52.2578125 C-14.3415944 51.50421833 -19.59768607 49.2270968 -24.8203125 45.0703125 C-26.7578125 42.5078125 -26.7578125 42.5078125 -27.5078125 40.0703125 C-26.25197575 35.77953692 -23.53745319 33.74374257 -19.7578125 31.5078125 C-14.60061409 29.49570028 -9.33522524 27.5078125 -3.7578125 27.5078125 C-4.11875 26.60160156 -4.4796875 25.69539063 -4.8515625 24.76171875 C-10.68552334 9.44757154 -10.68552334 9.44757154 -7.7578125 1.9453125 C-5.22349489 0.12377172 -3.09425963 -0.17001427 0 0 Z " fill="#C52D2E" transform="translate(42.7578125,22.4921875)"/>
<path d="M0 0 C0.33 0 0.66 0 1 0 C1.74093387 20.97982759 -0.41648566 38.04887634 -14.5625 54.75 C-27.19240955 67.89815812 -43.66494144 74.62145058 -61.8125 75.3125 C-80.31767242 74.86551516 -96.92846737 67.61031267 -109.8125 54.4375 C-115.8368295 47.35529378 -121.70473122 37.30074946 -123 28 C-121.68 27.01 -120.36 26.02 -119 25 C-118.68869141 25.76570313 -118.68869141 25.76570313 -118.37109375 26.546875 C-110.94946843 44.06066863 -101.01540413 57.26103845 -83.16796875 64.6796875 C-68.93656319 69.98879439 -54.05417207 69.78925245 -40 64 C-39.13117188 63.649375 -38.26234375 63.29875 -37.3671875 62.9375 C-23.69988873 56.76793567 -13.92749151 46.08303946 -8.4375 32.24609375 C-7.60731716 29.9952111 -6.81327153 27.73037814 -6.0703125 25.44921875 C-5.71710938 24.64097656 -5.36390625 23.83273438 -5 23 C-4.01 22.67 -3.02 22.34 -2 22 C-0.90684754 17.4161086 -0.67717375 12.87488993 -0.4375 8.1875 C-0.37272461 7.00510742 -0.37272461 7.00510742 -0.30664062 5.79882812 C-0.20121679 3.86605785 -0.10016906 1.93304974 0 0 Z " fill="#B42D30" transform="translate(125,52)"/>
<path d="M0 0 C3.90709781 0.46399088 6.30842601 1.43363901 9.02539062 4.31640625 C15.03424823 12.05203753 15.03424823 12.05203753 14.88867188 16.58203125 C13.59538916 19.2605875 12.07887554 21.71086216 10.45507812 24.203125 C9.82601562 25.17636719 9.19695312 26.14960937 8.54882812 27.15234375 C6.95507812 29.515625 6.95507812 29.515625 5.95507812 30.515625 C0.69511481 31.22063174 -4.84135375 31.83682232 -10.04492188 30.515625 C-13.46148089 27.66499907 -15.17363897 24.50309026 -17.04492188 20.515625 C-17.70492187 19.525625 -18.36492188 18.535625 -19.04492188 17.515625 C-17.95741741 6.87196428 -10.39734306 -0.2312662 0 0 Z " fill="#FDF7F7" transform="translate(65.044921875,46.484375)"/>
<path d="M0 0 C2 1.4375 2 1.4375 3 4 C3.65620146 10.49030772 2.4609011 15.97448809 0.3125 22.0625 C0.06822266 22.81337891 -0.17605469 23.56425781 -0.42773438 24.33789062 C-2.26659223 29.72411477 -4.80201575 34.30168739 -8 39 C-11.60178621 35.59239705 -14.3875644 32.16928332 -17.0625 28 C-20.0587446 23.34840442 -23.07630476 18.92369524 -27 15 C-25.07918496 13.31367407 -23.15639053 11.62971333 -21.23046875 9.94921875 C-19.83276488 8.72775775 -18.43890257 7.50187142 -17.05078125 6.26953125 C-16.45652344 5.74746094 -15.86226562 5.22539062 -15.25 4.6875 C-14.71890625 4.21699219 -14.1878125 3.74648438 -13.640625 3.26171875 C-9.0895264 -0.23829279 -5.61638788 -0.53489408 0 0 Z " fill="#D83133" transform="translate(89,23)"/>
<path d="M0 0 C0 0.66 0 1.32 0 2 C0.66 2 1.32 2 2 2 C2.35191406 2.73863281 2.70382813 3.47726563 3.06640625 4.23828125 C6.22603512 10.73078235 9.66176154 16.81951399 13.6796875 22.8203125 C15 25 15 25 15 27 C13.22925083 27.02705729 11.45838289 27.04642195 9.6875 27.0625 C8.70136719 27.07410156 7.71523438 27.08570312 6.69921875 27.09765625 C4 27 4 27 1 26 C0.67 26.66 0.34 27.32 0 28 C0 27.01 0 26.02 0 25 C-1.299375 24.9175 -2.59875 24.835 -3.9375 24.75 C-10.5837819 23.99640583 -15.83987357 21.7192843 -21.0625 17.5625 C-23 15 -23 15 -23.75 12.5625 C-22.49416325 8.27172442 -19.77964069 6.23593007 -16 4 C-10.84280159 1.98788778 -5.57741274 0 0 0 Z " fill="#D13234" transform="translate(39,50)"/>
<path d="M0 0 C0.64757625 1.43671568 1.29299453 2.87440416 1.9375 4.3125 C2.29714844 5.11300781 2.65679687 5.91351563 3.02734375 6.73828125 C5.23922995 11.88158288 5.6266431 16.45729764 5 22 C3.375 25.125 3.375 25.125 1 27 C-2.24126112 27.82915982 -4.11202722 27.46074059 -7.0703125 25.92578125 C-9.48203908 24.39219205 -11.73717874 22.74602684 -14 21 C-14.86238281 20.33871094 -15.72476563 19.67742187 -16.61328125 18.99609375 C-21.42789342 15.05005858 -21.42789342 15.05005858 -23 13 C-22.96575272 9.85414272 -22.36144797 8.43822331 -20.36328125 6.015625 C-13.60600805 0.19793455 -8.67264769 -0.14952841 0 0 Z " fill="#F18D26" transform="translate(87,76)"/>
<path d="M0 0 C7.26760733 0.64600954 15.63506664 2.42290919 21.1875 7.4375 C23 10 23 10 23.625 12.5 C22.70652539 16.17389845 21.09819144 17.99237195 18 20 C11.8215783 22.84911674 5.75471703 25.06269387 -1 26 C-6.34497998 16.9443447 -6.34497998 16.9443447 -7 12 C-5.49316279 7.32220907 -3.09421596 3.78798636 0 0 Z " fill="#EC602E" transform="translate(87,50)"/>
<path d="M0 0 C0.33 0 0.66 0 1 0 C1.74498131 21.09443243 -0.4065487 38.31226092 -14.875 54.9375 C-22.88197006 63.22098705 -31.76892635 68.27361618 -43 71 C-45.921875 70.62890625 -45.921875 70.62890625 -48 70 C-48.33 69.01 -48.66 68.02 -49 67 C-48.10539062 66.72027344 -47.21078125 66.44054687 -46.2890625 66.15234375 C-38.20689484 63.4726485 -31.69251824 60.40902159 -25 55 C-24.01128906 54.236875 -23.02257812 53.47375 -22.00390625 52.6875 C-18.86011762 50.04492395 -16.60485199 46.96688808 -14.4375 43.5 C-14.05255371 42.89776611 -13.66760742 42.29553223 -13.27099609 41.67504883 C-10.0700422 36.49290562 -7.95861688 31.24701255 -6.0703125 25.44921875 C-5.71710938 24.64097656 -5.36390625 23.83273438 -5 23 C-4.01 22.67 -3.02 22.34 -2 22 C-0.90684754 17.4161086 -0.67717375 12.87488993 -0.4375 8.1875 C-0.37272461 7.00510742 -0.37272461 7.00510742 -0.30664062 5.79882812 C-0.20121679 3.86605785 -0.10016906 1.93304974 0 0 Z " fill="#B12C2E" transform="translate(125,52)"/>
<path d="M0 0 C1.66666667 0 3.33333333 0 5 0 C4.18742237 3.72780459 2.70100778 6.87892322 1.03515625 10.29296875 C-2.43572896 19.36966102 -2.12420878 28.05415925 -1.74609375 37.64453125 C-1.72417969 38.67707031 -1.70226562 39.70960937 -1.6796875 40.7734375 C-1.64601074 41.70591309 -1.61233398 42.63838867 -1.57763672 43.59912109 C-2 46 -2 46 -4.02001953 47.82666016 C-4.67341309 48.2138623 -5.32680664 48.60106445 -6 49 C-8.2965887 43.48818713 -8.38503279 38.37570631 -8.375 32.5 C-8.37338867 31.52474365 -8.37177734 30.5494873 -8.37011719 29.54467773 C-8.18883102 18.78925361 -6.04685815 9.07028723 0 0 Z " fill="#BC2C2F" transform="translate(8,31)"/>
<path d="M0 0 C2.375 1.625 2.375 1.625 4 4 C4.48288863 7.31123632 4.29618989 9.296549 3 12.375 C0.29455964 14.5731703 -1.7087924 14.5712063 -5.125 14.3828125 C-7 14 -7 14 -9 12.375 C-10.29618989 9.296549 -10.48288863 7.31123632 -10 4 C-7.21921757 -0.06422047 -4.81255755 -0.80209293 0 0 Z " fill="#E7383B" transform="translate(66,55)"/>
<path d="M0 0 C0.33 0 0.66 0 1 0 C1.62948368 17.82407259 0.54128076 31.41590809 -9 47 C-10.5625 45.3125 -10.5625 45.3125 -12 43 C-11.73892079 38.54629576 -9.753116 34.37191318 -8.125 30.25 C-7.86847656 29.56550781 -7.61195312 28.88101563 -7.34765625 28.17578125 C-6.65311363 26.41324847 -5.833918 24.70102676 -5 23 C-4.01 22.67 -3.02 22.34 -2 22 C-0.90684754 17.4161086 -0.67717375 12.87488993 -0.4375 8.1875 C-0.39431641 7.39923828 -0.35113281 6.61097656 -0.30664062 5.79882812 C-0.20121679 3.86605785 -0.10016906 1.93304974 0 0 Z " fill="#D5373A" transform="translate(125,52)"/>
<path d="M0 0 C3.875 2.625 3.875 2.625 5 6 C5.09309158 7.62945393 5.13069111 9.26242168 5.1328125 10.89453125 C5.13410156 11.85037109 5.13539062 12.80621094 5.13671875 13.79101562 C5.13285156 14.78810547 5.12898438 15.78519531 5.125 16.8125 C5.12886719 17.79798828 5.13273437 18.78347656 5.13671875 19.79882812 C5.1302121 24.64302983 5.01845121 29.23914473 4 34 C2.68 34 1.36 34 0 34 C0.00523682 33.39115967 0.01047363 32.78231934 0.01586914 32.1550293 C0.23437125 17.41291377 0.23437125 17.41291377 -0.87890625 2.73046875 C-0.91886719 2.15941406 -0.95882812 1.58835938 -1 1 C-0.67 0.67 -0.34 0.34 0 0 Z " fill="#DF3235" transform="translate(120,41)"/>
<path d="M0 0 C3.84762566 3.4201117 6.60634022 7.46774256 9 12 C9 12.66 9 13.32 9 14 C7.22925083 14.02705729 5.45838289 14.04642195 3.6875 14.0625 C2.70136719 14.07410156 1.71523438 14.08570312 0.69921875 14.09765625 C-2 14 -2 14 -5 13 C-4.39254603 8.14036821 -2.27241033 4.2594482 0 0 Z " fill="#D01411" transform="translate(45,63)"/>
<path d="M0 0 C3.08812795 4.0050511 6 7.7935646 6 13 C1.38 13.33 -3.24 13.66 -8 14 C-6.4655333 10.16383324 -5.15341734 7.50606439 -2.875 4.1875 C-2.33617188 3.39730469 -1.79734375 2.60710937 -1.2421875 1.79296875 C-0.83226563 1.20128906 -0.42234375 0.60960937 0 0 Z " fill="#DA260C" transform="translate(80,63)"/>
<path d="M0 0 C4.62 0 9.24 0 14 0 C12.43469176 3.9132706 11.35471762 6.13199262 8.875 9.3125 C8.33617187 10.00988281 7.79734375 10.70726562 7.2421875 11.42578125 C6.83226562 11.94527344 6.42234375 12.46476562 6 13 C2.47612355 8.88881081 0 5.53491888 0 0 Z " fill="#AE0E0F" transform="translate(40,49)"/>
<path d="M0 0 C1.43739513 -0.02712066 2.87493863 -0.04645067 4.3125 -0.0625 C5.51326172 -0.07990234 5.51326172 -0.07990234 6.73828125 -0.09765625 C9 0 9 0 12 1 C11.42365861 5.75481646 9.44931479 8.97048212 7 13 C3.74085049 9.91702073 0.93446327 7.0838669 -1 3 C-0.67 2.01 -0.34 1.02 0 0 Z " fill="#D2110F" transform="translate(74,49)"/>
<path d="M0 0 C0.66 0.33 1.32 0.66 2 1 C-11.33915441 8.2987826 -26.03286537 10.60297993 -41 8 C-41 7.67 -41 7.34 -41 7 C-34.07 6.34 -27.14 5.68 -20 5 C-20 4.01 -20 3.02 -20 2 C-18.02 2 -16.04 2 -14 2 C-14 2.66 -14 3.32 -14 4 C-10.0948678 3.60151712 -6.74335987 3.01099435 -3.1875 1.375 C-2.135625 0.92125 -1.08375 0.4675 0 0 Z " fill="#541315" transform="translate(92,118)"/>
<path d="M0 0 C1.47436523 0.07734375 1.47436523 0.07734375 2.97851562 0.15625 C4.00267578 0.22070312 5.02683594 0.28515625 6.08203125 0.3515625 C7.63567383 0.43664062 7.63567383 0.43664062 9.22070312 0.5234375 C11.77934396 0.66492916 14.33700609 0.81634116 16.89453125 0.9765625 C16.89453125 1.9665625 16.89453125 2.9565625 16.89453125 3.9765625 C9.55689418 5.15058443 2.31287707 5.07033373 -5.10546875 4.9765625 C-5.10546875 4.3165625 -5.10546875 3.6565625 -5.10546875 2.9765625 C-6.09546875 2.6465625 -7.08546875 2.3165625 -8.10546875 1.9765625 C-4.7389507 -0.26778287 -3.88949887 -0.22482652 0 0 Z " fill="#DB3235" transform="translate(56.10546875,120.0234375)"/>
<path d="M0 0 C-0.99 1.32 -1.98 2.64 -3 4 C-1.68 4.33 -0.36 4.66 1 5 C-1.72017521 6.3600876 -3.10987089 5.37739918 -5.88720703 4.52050781 C-9.84222137 3.54615022 -13.88171775 3.52304376 -17.9375 3.375 C-18.81212891 3.33632812 -19.68675781 3.29765625 -20.58789062 3.2578125 C-22.72494631 3.1643893 -24.86244294 3.08114602 -27 3 C-23.61858597 -0.64488507 -21.06944824 -0.61724651 -16.20703125 -0.94921875 C-10.77280778 -1.03526614 -5.40143757 -0.55817717 0 0 Z " fill="#E5474A" transform="translate(82,2)"/>
<path d="M0 0 C3.79379058 1.49041773 5.68343758 3.69062512 8 7 C8 7.66 8 8.32 8 9 C3.38 9 -1.24 9 -6 9 C-4.06890245 5.78150408 -2.27475854 2.92468955 0 0 Z " fill="#B30C0C" transform="translate(62,39)"/>
<path d="M0 0 C0.97130859 0.00064453 1.94261719 0.00128906 2.94335938 0.00195312 C7.39035795 0.02938492 11.45813474 0.21256953 15.8125 1.1875 C15.8125 1.5175 15.8125 1.8475 15.8125 2.1875 C15.21824219 2.17589844 14.62398437 2.16429687 14.01171875 2.15234375 C2.85869936 1.805813 2.85869936 1.805813 -7.8515625 4.27734375 C-10.1875 5.1875 -10.1875 5.1875 -12.75 4.375 C-13.554375 3.983125 -14.35875 3.59125 -15.1875 3.1875 C-16.5154229 2.83322656 -17.84823202 2.49612624 -19.1875 2.1875 C-12.67526734 0.23768359 -6.77492616 -0.0864497 0 0 Z " fill="#B6292B" transform="translate(63.1875,-0.1875)"/>
<path d="M0 0 C0.33 0 0.66 0 1 0 C1.61916858 23.99516389 1.61916858 23.99516389 -2 33 C-4.40607968 30.72327944 -5.58050415 29.35596682 -6 26 C-5.505 24.515 -5.505 24.515 -5 23 C-4.01 22.67 -3.02 22.34 -2 22 C-0.90684754 17.4161086 -0.67717375 12.87488993 -0.4375 8.1875 C-0.37272461 7.00510742 -0.37272461 7.00510742 -0.30664062 5.79882812 C-0.20121679 3.86605785 -0.10016906 1.93304974 0 0 Z " fill="#982224" transform="translate(125,52)"/>
<path d="M0 0 C3.72006826 4.118647 6.30824355 8.71715318 8 14 C7.67 14.66 7.34 15.32 7 16 C6.34 15.67 5.68 15.34 5 15 C4.34 15.66 3.68 16.32 3 17 C-0.3284547 10.82878785 -1.50717296 6.90787608 0 0 Z " fill="#BB2B2E" transform="translate(115,27)"/>
<path d="M0 0 C4.62 0 9.24 0 14 0 C11.03 3.96 11.03 3.96 8 8 C3.61364256 5.80682128 2.48743095 4.08649371 0 0 Z " fill="#D91C09" transform="translate(56,78)"/>
<path d="M0 0 C0.33 0 0.66 0 1 0 C1.28391135 3.10204396 1.52121382 6.20594256 1.75 9.3125 C1.83121094 10.19357422 1.91242187 11.07464844 1.99609375 11.98242188 C2.16035298 14.38243179 2.27843017 16.60975754 2 19 C0.015625 21.10546875 0.015625 21.10546875 -2 22 C-2.22127098 19.70954632 -2.4266504 17.41755236 -2.625 15.125 C-2.74101563 13.84882812 -2.85703125 12.57265625 -2.9765625 11.2578125 C-2.98816406 9.64519531 -2.98816406 9.64519531 -3 8 C-2.34 7.34 -1.68 6.68 -1 6 C-0.60235737 4.01178687 -0.26224651 2.01055661 0 0 Z " fill="#E54649" transform="translate(4,58)"/>
<path d="M0 0 C0.33 0 0.66 0 1 0 C1.33 1.98 1.66 3.96 2 6 C2.66 4.68 3.32 3.36 4 2 C4.10251672 7.12583611 4.03590199 11.94997778 3 17 C1.68 17 0.36 17 -1 17 C-0.67 11.39 -0.34 5.78 0 0 Z " fill="#E54346" transform="translate(121,58)"/>
<path d="M0 0 C-0.33 0.66 -0.66 1.32 -1 2 C-3.50390625 2.6328125 -3.50390625 2.6328125 -6.5625 3.125 C-8.08037109 3.37636719 -8.08037109 3.37636719 -9.62890625 3.6328125 C-10.80259766 3.81457031 -10.80259766 3.81457031 -12 4 C-12.33 3.01 -12.66 2.02 -13 1 C-8.17358848 -2.21760768 -5.23687639 -2.54362567 0 0 Z " fill="#E2373A" transform="translate(53,4)"/>
<path d="M0 0 C0 1.66666667 0 3.33333333 0 5 C-4.71403788 4.52060632 -8.66579301 4.03165952 -13 2 C-8.58574544 0.52858181 -4.6573692 -0.13306769 0 0 Z " fill="#761A1B" transform="translate(51,120)"/>
<path d="M0 0 C-0.33 1.65 -0.66 3.3 -1 5 C-2.98 5.33 -4.96 5.66 -7 6 C-7.66 4.68 -8.32 3.36 -9 2 C-3.375 0 -3.375 0 0 0 Z " fill="#DE3E41" transform="translate(85,117)"/>
<path d="M0 0 C0.90105469 0.00902344 1.80210938 0.01804688 2.73046875 0.02734375 C3.41753906 0.03894531 4.10460938 0.05054687 4.8125 0.0625 C4.8125 1.0525 4.8125 2.0425 4.8125 3.0625 C1.14860983 4.41949636 -0.70354113 3.63028149 -4.1875 2.0625 C-5.51426508 1.70391484 -6.84585921 1.3606424 -8.1875 1.0625 C-5.17259443 0.05753148 -3.14568308 -0.04085303 0 0 Z " fill="#C82D2F" transform="translate(52.1875,0.9375)"/>
<path d="M0 0 C0.66 0.33 1.32 0.66 2 1 C1.46968862 5.5076467 -0.25221116 8.41954788 -3 12 C-3.66 12 -4.32 12 -5 12 C-3.68938409 7.76570244 -2.05643741 3.92592596 0 0 Z " fill="#C00B0C" transform="translate(45,63)"/>
<path d="M0 0 C1.485 0.99 1.485 0.99 3 2 C3.51579638 5.8168932 2.58076658 8.54207311 1 12 C0.67 12 0.34 12 0 12 C-0.19401633 10.18818595 -0.38004375 8.37551468 -0.5625 6.5625 C-0.66691406 5.55316406 -0.77132812 4.54382812 -0.87890625 3.50390625 C-0.91886719 2.67761719 -0.95882812 1.85132813 -1 1 C-0.67 0.67 -0.34 0.34 0 0 Z " fill="#E1373A" transform="translate(120,41)"/>
<path d="M0 0 C1.3921875 0.0928125 1.3921875 0.0928125 2.8125 0.1875 C1.3275 2.1675 1.3275 2.1675 -0.1875 4.1875 C1.1325 4.5175 2.4525 4.8475 3.8125 5.1875 C1.8125 6.1875 1.8125 6.1875 -0.1328125 5.62890625 C-0.85210937 5.33886719 -1.57140625 5.04882812 -2.3125 4.75 C-3.03695312 4.46253906 -3.76140625 4.17507812 -4.5078125 3.87890625 C-5.33925781 3.53666016 -5.33925781 3.53666016 -6.1875 3.1875 C-3.95423267 0.63232026 -3.57835327 0.21049137 0 0 Z " fill="#D93F41" transform="translate(79.1875,1.8125)"/>
<path d="M0 0 C1.1484375 1.703125 1.1484375 1.703125 2 4 C1.1015625 6.359375 1.1015625 6.359375 -0.375 8.75 C-0.85710937 9.54921875 -1.33921875 10.3484375 -1.8359375 11.171875 C-2.22007813 11.77515625 -2.60421875 12.3784375 -3 13 C-4.60031344 9.79937313 -3.03173691 7.27728194 -2 4 C-1.34 4 -0.68 4 0 4 C0 2.68 0 1.36 0 0 Z " fill="#671718" transform="translate(119,86)"/>
<path d="M0 0 C-0.33 3.63 -0.66 7.26 -1 11 C-2.96602468 8.05096298 -3.73897585 6.48032201 -4 3 C-1.72413793 0 -1.72413793 0 0 0 Z " fill="#9A2224" transform="translate(6,77)"/>
<path d="M0 0 C2 3 2 3 2 7 C1.34 7 0.68 7 0 7 C-0.33 8.32 -0.66 9.64 -1 11 C-1.33 11 -1.66 11 -2 11 C-2.19622241 6.78121808 -1.80230168 3.82989106 0 0 Z " fill="#AE2528" transform="translate(123,44)"/>
<path d="M0 0 C2.64 0.33 5.28 0.66 8 1 C7.67 1.66 7.34 2.32 7 3 C3.71585695 3.95067299 2.30306592 4.10102197 -1 3 C-0.67 2.01 -0.34 1.02 0 0 Z " fill="#C62C2E" transform="translate(80,3)"/>
<path d="M0 0 C0.99 0 1.98 0 3 0 C4.6875 2 4.6875 2 6 4 C3.03 3.67 0.06 3.34 -3 3 C-2.01 2.01 -1.02 1.02 0 0 Z " fill="#E4373A" transform="translate(51,120)"/>
<path d="M0 0 C0.99 0.33 1.98 0.66 3 1 C2.67 2.32 2.34 3.64 2 5 C0.35 5.33 -1.3 5.66 -3 6 C-2.01 4.02 -1.02 2.04 0 0 Z " fill="#E24346" transform="translate(112,93)"/>
<path d="M0 0 C0.66 1.32 1.32 2.64 2 4 C0.68 4.99 -0.64 5.98 -2 7 C-2.125 4.625 -2.125 4.625 -2 2 C-1.34 1.34 -0.68 0.68 0 0 Z " fill="#D52F32" transform="translate(4,73)"/>
</svg>
